<svg id="visual" viewBox="0 0 512 512" width="512" height="512" xmlns="http://www.w3.org/2000/svg" xmlns:xlink="http://www.w3.org/1999/xlink" version="1.1"><path d="M0 68L7.8 71.3C15.7 74.7 31.3 81.3 46.8 76.2C62.3 71 77.7 54 93.2 48.8C108.7 43.7 124.3 50.3 139.8 58.8C155.3 67.3 170.7 77.7 186.2 80.3C201.7 83 217.3 78 232.8 75.5C248.3 73 263.7 73 279.2 75.5C294.7 78 310.3 83 325.8 86.3C341.3 89.7 356.7 91.3 372.2 88C387.7 84.7 403.3 76.3 418.8 74.7C434.3 73 449.7 78 465.2 79.7C480.7 81.3 496.3 79.7 504.2 78.8L512 78L512 0L504.2 0C496.3 0 480.7 0 465.2 0C449.7 0 434.3 0 418.8 0C403.3 0 387.7 0 372.2 0C356.7 0 341.3 0 325.8 0C310.3 0 294.7 0 279.2 0C263.7 0 248.3 0 232.8 0C217.3 0 201.7 0 186.2 0C170.7 0 155.3 0 139.8 0C124.3 0 108.7 0 93.2 0C77.7 0 62.3 0 46.8 0C31.3 0 15.7 0 7.8 0L0 0Z" fill="#63a1ff"></path><path d="M0 149L7.8 174.7C15.7 200.3 31.3 251.7 46.8 247.5C62.3 243.3 77.7 183.7 93.2 164C108.7 144.3 124.3 164.7 139.8 190.2C155.3 215.7 170.7 246.3 186.2 266C201.7 285.7 217.3 294.3 232.8 287.7C248.3 281 263.7 259 279.2 243.7C294.7 228.3 310.3 219.7 325.8 209.3C341.3 199 356.7 187 372.2 176.7C387.7 166.3 403.3 157.7 418.8 166.2C434.3 174.7 449.7 200.3 465.2 203.8C480.7 207.3 496.3 188.7 504.2 179.3L512 170L512 76L504.2 76.8C496.3 77.7 480.7 79.3 465.2 77.7C449.7 76 434.3 71 418.8 72.7C403.3 74.3 387.7 82.7 372.2 86C356.7 89.3 341.3 87.7 325.8 84.3C310.3 81 294.7 76 279.2 73.5C263.7 71 248.3 71 232.8 73.5C217.3 76 201.7 81 186.2 78.3C170.7 75.7 155.3 65.3 139.8 56.8C124.3 48.3 108.7 41.7 93.2 46.8C77.7 52 62.3 69 46.8 74.2C31.3 79.3 15.7 72.7 7.8 69.3L0 66Z" fill="#3e8bff"></path><path d="M0 334L7.8 342.5C15.7 351 31.3 368 46.8 379C62.3 390 77.7 395 93.2 393.3C108.7 391.7 124.3 383.3 139.8 381.7C155.3 380 170.7 385 186.2 388.3C201.7 391.7 217.3 393.3 232.8 384C248.3 374.7 263.7 354.3 279.2 339.8C294.7 325.3 310.3 316.7 325.8 321.8C341.3 327 356.7 346 372.2 362.2C387.7 378.3 403.3 391.7 418.8 394.2C434.3 396.7 449.7 388.3 465.2 379C480.7 369.7 496.3 359.3 504.2 354.2L512 349L512 168L504.2 177.3C496.3 186.7 480.7 205.3 465.2 201.8C449.7 198.3 434.3 172.7 418.8 164.2C403.3 155.7 387.7 164.3 372.2 174.7C356.7 185 341.3 197 325.8 207.3C310.3 217.7 294.7 226.3 279.2 241.7C263.7 257 248.3 279 232.8 285.7C217.3 292.3 201.7 283.7 186.2 264C170.7 244.3 155.3 213.7 139.8 188.2C124.3 162.7 108.7 142.3 93.2 162C77.7 181.7 62.3 241.3 46.8 245.5C31.3 249.7 15.7 198.3 7.8 172.7L0 147Z" fill="#0074ff"></path><path d="M0 395L7.8 407.8C15.7 420.7 31.3 446.3 46.8 457.5C62.3 468.7 77.7 465.3 93.2 458.5C108.7 451.7 124.3 441.3 139.8 435.3C155.3 429.3 170.7 427.7 186.2 434.5C201.7 441.3 217.3 456.7 232.8 455.8C248.3 455 263.7 438 279.2 424.3C294.7 410.7 310.3 400.3 325.8 398.7C341.3 397 356.7 404 372.2 416C387.7 428 403.3 445 418.8 452.7C434.3 460.3 449.7 458.7 465.2 448.3C480.7 438 496.3 419 504.2 409.5L512 400L512 347L504.2 352.2C496.3 357.3 480.7 367.7 465.2 377C449.7 386.3 434.3 394.7 418.8 392.2C403.3 389.7 387.7 376.3 372.2 360.2C356.7 344 341.3 325 325.8 319.8C310.3 314.7 294.7 323.3 279.2 337.8C263.7 352.3 248.3 372.7 232.8 382C217.3 391.3 201.7 389.7 186.2 386.3C170.7 383 155.3 378 139.8 379.7C124.3 381.3 108.7 389.7 93.2 391.3C77.7 393 62.3 388 46.8 377C31.3 366 15.7 349 7.8 340.5L0 332Z" fill="#0065dd"></path><path d="M0 513L7.8 513C15.7 513 31.3 513 46.8 513C62.3 513 77.7 513 93.2 513C108.7 513 124.3 513 139.8 513C155.3 513 170.7 513 186.2 513C201.7 513 217.3 513 232.8 513C248.3 513 263.7 513 279.2 513C294.7 513 310.3 513 325.8 513C341.3 513 356.7 513 372.2 513C387.7 513 403.3 513 418.8 513C434.3 513 449.7 513 465.2 513C480.7 513 496.3 513 504.2 513L512 513L512 398L504.2 407.5C496.3 417 480.7 436 465.2 446.3C449.7 456.7 434.3 458.3 418.8 450.7C403.3 443 387.7 426 372.2 414C356.7 402 341.3 395 325.8 396.7C310.3 398.3 294.7 408.7 279.2 422.3C263.7 436 248.3 453 232.8 453.8C217.3 454.7 201.7 439.3 186.2 432.5C170.7 425.7 155.3 427.3 139.8 433.3C124.3 439.3 108.7 449.7 93.2 456.5C77.7 463.3 62.3 466.7 46.8 455.5C31.3 444.3 15.7 418.7 7.8 405.8L0 393Z" fill="#0056bb"></path></svg>